Coordinates
version=1
nRows=14
nColumns=36
inDegrees=yes

Units are S.I. units (second, meters, Newtons, ...)
If the header above contains a line with 'inDegrees', this indicates whether rotational values are in degrees (yes) or radians (no).

endheader
time	pelvis_tilt	pelvis_list	pelvis_rotation	pelvis_tx	pelvis_ty	pelvis_tz	hip_flexion_r	hip_adduction_r	hip_rotation_r	knee_angle_r	knee_angle_r_beta	ankle_angle_r	subtalar_angle_r	mtp_angle_r	hip_flexion_l	hip_adduction_l	hip_rotation_l	knee_angle_l	knee_angle_l_beta	ankle_angle_l	subtalar_angle_l	mtp_angle_l	lumbar_extension	lumbar_bending	lumbar_rotation	arm_flex_r	arm_add_r	arm_rot_r	elbow_flex_r	pro_sup_r	arm_flex_l	arm_add_l	arm_rot_l	elbow_flex_l	pro_sup_l
     30.45000000	     -4.21200358	      4.21630833	     -0.14768994	      0.96856560	      0.89672967	      0.74709996	     -7.63969649	     -4.07025523	     10.01390125	     21.87393664	      0.38177221	     15.44367740	      1.58086380	     -7.49999987	     28.95086671	      2.56553131	     -3.76007275	     22.99825787	      0.40139532	      0.83580803	     -3.07041133	     -7.49999987	     -7.69596697	     -7.04411783	      9.42011296	     13.67914552	    -13.08025690	     18.61333669	     25.26074729	     85.68474364	      3.95375143	     -7.47653853	     -4.93790220	     12.07503267	     83.83498028
     30.46666670	     -4.23147365	      4.19413642	     -0.48491860	      0.97107686	      0.90639617	      0.74239492	     -7.27260869	     -4.18547650	     10.63183003	     24.05254784	      0.41979615	     12.94514254	     -0.04638552	     -7.49999987	     28.44087040	      2.56888355	     -3.65588093	     24.44697440	      0.42668020	      1.19468111	     -3.68525437	     -7.49999987	     -7.37755106	     -7.31054979	     10.09866974	     12.94325204	    -13.07779222	     18.28163652	     24.80234397	     84.10049993	      3.90207469	     -7.66274034	     -5.28975531	     12.09072501	     82.23182699
     30.48333330	     -4.52510894	      4.25674372	     -0.30272214	      0.97510432	      0.91295490	      0.73493376	     -6.29733054	     -4.48678366	     10.10305892	     26.94132883	      0.47021489	     10.58828792	     -0.01584256	     -7.49999987	     27.89826414	      3.09085178	     -3.04452958	     25.25539663	      0.44078983	      1.71677921	     -4.43744195	     -7.49999987	     -6.56947484	     -7.49221663	     10.59067922	     11.55772228	    -13.22154920	     17.46928319	     24.69430333	     84.96540537	      4.39602880	     -7.89172584	     -3.63280925	     10.74633939	     83.31368065
     30.50000000	     -4.56020828	      4.25843474	     -0.09999049	      0.97990290	      0.91503970	      0.72759817	     -5.26688774	     -4.61189510	     10.05191601	     30.36065637	      0.52989342	      6.93625066	     -1.16923122	     -7.49999987	     26.76057510	      3.63806732	     -2.55641334	     25.43036448	      0.44384359	      2.38252263	     -4.80523095	     -7.49999987	     -6.11995422	     -7.46957030	     10.43851446	     10.59974474	    -13.19238077	     17.13619472	     24.15356562	     85.03739348	      4.38746512	     -7.92661652	     -3.87587557	     10.47900971	     83.24253609
     30.51666670	     -4.52090146	      4.24936621	      0.15334925	      0.98252898	      0.91553147	      0.72257738	     -3.81637719	     -4.62624918	     10.00879214	     34.52457652	      0.60256753	      2.75186239	     -2.65094103	     -7.49999987	     25.30599827	      4.21162262	     -1.98361210	     25.06864014	      0.43753031	      3.08612132	     -4.96419444	     -7.49999987	     -5.84412273	     -7.40742329	      9.99498378	      9.64815318	    -13.04637491	     16.83185050	     23.78350860	     85.03718955	      4.37758108	     -7.91696779	     -3.97953358	     10.29596995	     83.17887963
     30.53333330	     -4.51658140	      4.08315350	      0.36829714	      0.98101351	      0.91721297	      0.72088376	     -1.80821314	     -4.34140878	      9.92743830	     39.13582963	      0.68304908	     -1.58652260	     -4.40357342	     -7.49999987	     23.83317555	      4.51006985	     -1.42731811	     24.40797773	      0.42599958	      3.78809366	     -4.97772975	     -7.49999987	     -5.70559600	     -7.15742512	      9.46891449	      8.83453006	    -12.90305365	     16.36034696	     23.52013495	     85.00083188	      4.48972136	     -7.88525684	     -3.98940158	     10.32391715	     83.09507365
     30.55000000	     -4.25678578	      3.79243806	      0.53136540	      0.97764862	      0.91961575	      0.72118934	      0.25954818	     -3.97118978	      9.36685242	     43.64667869	      0.76177825	     -4.66360300	     -4.67064802	     -7.49999987	     22.09540410	      4.58648535	     -0.77829476	     23.51591812	      0.41043020	      4.46263426	     -4.87268961	     -7.49999987	     -6.23275756	     -6.70577746	      8.82441693	      8.35645431	    -12.95989375	     16.27650598	     23.52292014	     84.89515979	      4.85655386	     -7.76572534	     -3.93990187	     10.84751537	     83.00937634
     30.56666670	     -4.23635056	      3.59290799	      0.31417537	      0.97615570	      0.92054141	      0.72253585	      2.75464271	     -3.43394367	      9.35911584	     47.83841204	      0.83493780	     -7.97039390	     -6.97086718	     -7.49999987	     20.73286804	      4.44040965	     -0.75858184	     22.71237863	      0.39640579	      4.73816496	     -5.15070217	     -7.49999987	     -6.45859129	     -6.61472984	      8.16747154	      8.01604864	    -12.60017994	     16.04422700	     23.58500088	     84.83514432	      5.24841387	     -8.03111034	     -3.72827159	     11.42306778	     82.96645661
     30.58333330	     -4.05694303	      3.19264975	      0.20177495	      0.97726802	      0.92059458	      0.72160292	      5.04814410	     -2.86088642	      8.87859751	     51.44073748	      0.89781024	     -9.68248736	     -8.16404766	     -7.49999987	     19.30990290	      4.15059104	     -0.53892812	     22.10259495	      0.38576306	      5.07432772	     -5.39800994	     -7.49999987	     -6.89044849	     -6.13247187	      7.64245293	      7.66875827	    -12.47601743	     15.80227075	     23.60189850	     84.78916875	      5.76915252	     -8.14181038	     -3.40019639	     12.46446627	     82.92814974
     30.60000000	     -3.84607362	      2.81097427	      0.03789029	      0.97949327	      0.92027978	      0.71938661	      7.42866061	     -2.38323449	      8.45606630	     54.65883358	      0.95397661	     -9.96375562	     -9.96982004	     -7.49999987	     17.87475568	      3.84109617	     -0.55645994	     21.61445882	      0.37724347	      5.35281076	     -5.60133857	     -7.49999987	     -7.35818149	     -5.70008847	      7.25891900	      7.10837114	    -12.45455827	     15.32516164	     24.04443316	     83.93143941	      6.09363039	     -8.28801213	     -3.15344239	     14.12537007	     82.04856952
     30.61666670	     -3.34083213	      2.32199828	     -0.03628767	      0.98084478	      0.92140365	      0.71693248	      9.54899743	     -1.95478964	      7.90459345	     57.22222900	      0.99871630	     -8.05062768	    -11.73683664	     -7.49999987	     16.11967741	      3.45977981	     -0.38417987	     21.22517179	      0.37044913	      5.53297730	     -5.96260128	     -7.49999987	     -8.26649988	     -5.03355936	      6.61119297	      6.93273263	    -12.38084491	     14.79186273	     23.88379055	     83.62129212	      6.43841330	     -8.46075739	     -2.12212997	     15.45516035	     81.53144926
     30.63333330	     -2.98498020	      1.87287519	     -0.27583203	      0.98098705	      0.92405396	      0.71576424	     11.74466132	     -1.58460887	      7.59012701	     58.86342872	      1.02736064	     -5.38644888	    -14.24617570	     -7.49999987	     14.41408126	      3.00561996	     -0.47650972	     20.69652198	      0.36122245	      5.68959780	     -6.10208763	     -7.49999987	     -9.06363999	     -4.51299451	      6.28565204	      6.45717896	    -12.51593625	     14.47072312	     24.34381935	     82.98248097	      6.69351801	     -8.63475202	     -1.90343955	     17.12936840	     80.83263879
     30.65000000	     -2.48813025	      1.24008228	     -0.40016643	      0.97955711	      0.92751194	      0.71508671	     13.42812488	     -1.20434771	      6.97612959	     59.24200198	      1.03396799	     -2.01185902	    -15.47451985	     -7.49999987	     12.49718929	      2.39057510	     -0.21429197	     20.03479701	      0.34967317	      5.82432950	     -6.24860585	     -7.49999987	    -10.04100697	     -3.72486865	      5.58241789	      6.54053707	    -12.51002444	     14.12225749	     23.95621632	     82.91222740	      7.05165386	     -8.88367959	     -1.13979310	     18.17286617	     80.64473966
     30.66666670	     -2.25638216	      0.62976262	     -0.45897469	      0.97556702	      0.93022562	      0.71500249	     15.19839713	     -0.90468114	      6.29539563	     58.65462853	      1.02371639	      0.46193306	    -16.46724816	     -7.49999987	     10.89495345	      1.77961769	      0.03164634	     19.23201909	      0.33566205	      6.26126855	     -5.94968320	     -7.49999987	    -10.75590049	     -2.92391979	      4.80738317	      6.54430612	    -12.62176238	     14.13518374	     23.71059140	     83.57837825	      7.48541948	     -9.36183253	      0.47062562	     19.29716086	     80.95106184
